{"asset":{"version":"2.0","generator":"Babylon2Gltf2017","copyright":"2017 (c) BabylonJS"},"scene":0,"scenes":[{"nodes":[1]}],"nodes":[{"mesh":0,"translation":[0.0,120.150414,24.1672077],"rotation":[0.0,0.0,0.0,-1.0],"scale":[1.0,1.0,1.0],"name":"Plane002"},{"children":[0],"translation":[0.0,0.0,0.0],"rotation":[0.0,1.0,0.0,-4.371139E-08],"scale":[1.0,1.0,-1.0],"name":"root"}],"meshes":[{"primitives":[{"attributes":{"POSITION":1,"NORMAL":2,"TEXCOORD_0":3},"indices":0,"mode":4,"material":0}],"name":"Plane002"}],"accessors":[{"bufferView":0,"componentType":5123,"count":120,"type":"SCALAR","name":"accessorIndices"},{"bufferView":1,"componentType":5126,"count":120,"max":[50.0000038,75.26686,25.4976845],"min":[-50.0000038,-120.150414,-74.50231],"type":"VEC3","name":"accessorPositions"},{"bufferView":1,"byteOffset":1440,"componentType":5126,"count":120,"type":"VEC3","name":"accessorNormals"},{"bufferView":2,"componentType":5126,"count":120,"type":"VEC2","name":"accessorUVs"}],"bufferViews":[{"buffer":0,"byteLength":240,"name":"bufferViewScalar"},{"buffer":0,"byteOffset":240,"byteLength":2880,"byteStride":12,"name":"bufferViewFloatVec3"},{"buffer":0,"byteOffset":3120,"byteLength":960,"byteStride":8,"name":"bufferViewFloatVec2"}],"buffers":[{"uri":"pine_snow.bin","byteLength":4080}],"materials":[{"pbrMetallicRoughness":{"baseColorFactor":[1.0,1.0,1.0,1.0],"baseColorTexture":{"index":0},"metallicFactor":0.0,"roughnessFactor":0.9},"emissiveFactor":[0.0,0.0,0.0],"alphaMode":"BLEND","name":"Material #25"}],"textures":[{"sampler":0,"source":0,"name":"Material #25_baseColor.png"}],"images":[{"uri":"Material #25_baseColor.png"}],"samplers":[{"magFilter":9729,"minFilter":9987,"wrapS":10497,"wrapT":10497}]}